<?xml version="1.0" encoding="UTF-8"?>
<svg version="1.1" xmlns="http://www.w3.org/2000/svg" width="621" height="621">
<path d="M0 0 C0.88558594 0.63252686 0.88558594 0.63252686 1.7890625 1.27783203 C9.88154332 7.10041108 17.47525269 13.47322979 25 20 C25.78375 20.6703125 26.5675 21.340625 27.375 22.03125 C40.22487758 33.27489288 52.56211807 45.4781984 63 59 C64.45672318 60.73052334 65.91512192 62.45963731 67.375 64.1875 C73.05200222 71.13812533 78.05395768 78.52035819 83 86 C83.41894531 86.6300293 83.83789062 87.26005859 84.26953125 87.90917969 C114.86990176 134.27116962 130.43286022 188.65384681 132 244 C132.02191406 244.72155273 132.04382813 245.44310547 132.06640625 246.18652344 C133.61591351 306.33323014 118.98535727 368.77120036 85 419 C84.04287109 420.49660156 84.04287109 420.49660156 83.06640625 422.0234375 C75.4310699 433.86535209 66.81632816 445.32623969 57.1953125 455.62890625 C55.37529032 457.59465974 53.62751419 459.59335427 51.8828125 461.625 C47.38772485 466.77654551 42.58107422 471.60294016 37.75 476.4375 C36.87214844 477.32759766 35.99429688 478.21769531 35.08984375 479.13476562 C29.0408347 485.19705946 22.69727907 490.67003303 16 496 C14.77961673 497.01209597 13.56174776 498.02724008 12.34765625 499.046875 C-38.05134461 540.78814724 -103.05676118 562.16111641 -168 564 C-168.72155273 564.02191406 -169.44310547 564.04382813 -170.18652344 564.06640625 C-203.92165779 564.93549516 -237.65401889 560.61030884 -270 551 C-270.78729492 550.76700195 -271.57458984 550.53400391 -272.38574219 550.29394531 C-307.97115471 539.5531801 -341.93532377 521.07783382 -370.45507812 497.28466797 C-371.99194793 496.00669564 -373.55068186 494.75516871 -375.109375 493.50390625 C-383.31091003 486.8102712 -390.81431342 479.39634592 -398.3125 471.9375 C-398.82455994 471.43070709 -399.33661987 470.92391418 -399.86419678 470.40176392 C-405.94944258 464.36495703 -411.66794762 458.20967293 -417.01489258 451.49316406 C-419.08727582 448.89038733 -421.22384312 446.35035897 -423.375 443.8125 C-429.05200222 436.86187467 -434.05395768 429.47964181 -439 422 C-439.41894531 421.3699707 -439.83789062 420.73994141 -440.26953125 420.09082031 C-470.86990176 373.72883038 -486.43286022 319.34615319 -488 264 C-488.02191406 263.27844727 -488.04382813 262.55689453 -488.06640625 261.81347656 C-489.61591351 201.66676986 -474.98535727 139.22879964 -441 89 C-440.04287109 87.50339844 -440.04287109 87.50339844 -439.06640625 85.9765625 C-431.4310699 74.13464791 -422.81632816 62.67376031 -413.1953125 52.37109375 C-411.36557448 50.39484646 -409.60679204 48.38530263 -407.8515625 46.34375 C-397.32251997 34.27705722 -385.74281639 22.71615652 -373 13 C-371.55173828 11.80890625 -371.55173828 11.80890625 -370.07421875 10.59375 C-287.31302257 -57.27703754 -169.07983726 -74.21933095 0 0 Z " fill="#363636" transform="translate(489,57)"/>
<path d="M0 0 C1.14098145 0.00418945 2.28196289 0.00837891 3.45751953 0.01269531 C29.43394247 0.35723937 51.38562671 8.72615542 70.4375 26.3125 C71.10136719 26.89515625 71.76523437 27.4778125 72.44921875 28.078125 C87.36243695 41.84417257 97.067732 62.7880047 101.4375 82.3125 C101.86289062 84.15328125 101.86289062 84.15328125 102.296875 86.03125 C105.62132465 100.9599107 105.4375 113.16500238 105.4375 129.3125 C48.6775 129.3125 -8.0825 129.3125 -66.5625 129.3125 C-64.30820293 152.98261922 -60.79968767 174.79974555 -42.5625 191.3125 C-24.76656159 205.54925073 -4.59134794 207.77088119 17.4375 206.3125 C32.75751762 204.38280864 46.35875394 196.92342204 56.25 185.15625 C60.67294645 179.0525839 61.91744155 173.87267535 64.4375 166.3125 C76.6475 166.3125 88.8575 166.3125 101.4375 166.3125 C100.72815238 172.6966286 100.01812985 177.47566564 97.75 183.25 C97.3485376 184.28858154 97.3485376 184.28858154 96.93896484 185.34814453 C88.20309358 207.28761736 71.05572096 222.52187372 49.75 231.96875 C34.67785888 238.08292046 19.39287719 240.87770597 3.1875 240.75 C2.51728821 240.74729095 1.84707642 240.74458191 1.15655518 240.74179077 C-28.14562874 240.56307119 -53.84475268 230.54700083 -74.83203125 210.1015625 C-100.91614678 182.42256022 -106.4792699 143.16354413 -105.70751953 106.75537109 C-105.24631511 95.80603659 -103.43113497 84.59400734 -99.5625 74.3125 C-99.21445313 73.38695312 -98.86640625 72.46140625 -98.5078125 71.5078125 C-87.01463274 42.58706604 -67.16870137 19.82208829 -38.5625 7.3125 C-25.96178862 2.40113174 -13.49816171 -0.06788012 0 0 Z " fill="#FDFDFD" transform="translate(190.5625,190.6875)"/>
<path d="M0 0 C44.75125234 -4.03639943 44.75125234 -4.03639943 53.77734375 2.12988281 C59.22209988 7.51092371 62.14565768 14.0002267 64.83203125 21.08691406 C66.39088165 24.97491635 68.41046445 27.71391216 71 31 C76.26422427 38.2539226 81.18849824 45.72804781 86.1171875 53.21289062 C90.00101768 59.08912569 94.0048857 64.84498865 98.18505859 70.51464844 C106 81.21630347 106 81.21630347 106 84 C106.66 84 107.32 84 108 84 C108.22042969 83.32195312 108.44085938 82.64390625 108.66796875 81.9453125 C110.38828492 78.14144625 112.75474328 75.15404982 115.3125 71.875 C119.8776679 65.91151112 124.23094247 59.84641496 128.4375 53.625 C134.24357246 45.05338757 140.24886773 36.64543044 146.34423828 28.27783203 C148.06759901 25.90700401 149.7829547 23.53056705 151.49609375 21.15234375 C152.07230469 20.35256104 152.64851562 19.55277832 153.2421875 18.72875977 C154.33236483 17.21516534 155.42223408 15.70134894 156.51171875 14.18725586 C157.011875 13.4938208 157.51203125 12.80038574 158.02734375 12.0859375 C158.45781006 11.4882959 158.88827637 10.8906543 159.33178711 10.27490234 C160.15755249 9.14882568 160.15755249 9.14882568 161 8 C161.37594299 7.3372406 161.75188599 6.6744812 162.13922119 5.99163818 C164.14032577 2.77466807 165.6115734 0.4132047 169.34916687 -0.6991272 C172.22076346 -0.92599123 174.98909001 -0.9004331 177.8671875 -0.78125 C179.41927414 -0.76427063 179.41927414 -0.76427063 181.00271606 -0.74694824 C184.29539113 -0.70229758 187.58365013 -0.60195298 190.875 -0.5 C193.11191611 -0.45985852 195.34890073 -0.42335893 197.5859375 -0.390625 C203.05878873 -0.30260124 208.52907893 -0.168881 214 0 C214 0.66 214 1.32 214 2 C213.46890625 2.52722656 212.9378125 3.05445313 212.390625 3.59765625 C209.08847669 6.91599156 206.48892522 10.6498872 203.75 14.4375 C198.58127315 21.52259804 193.33411783 28.53860096 188 35.5 C182.93309962 42.11917022 177.92564099 48.7750381 173 55.5 C167.42264074 63.11475076 161.72631882 70.6315769 155.98950195 78.12670898 C149.67907671 86.38638355 143.50685563 94.74453226 137.37182617 103.13500977 C136 105 136 105 134.26293945 106.98803711 C132.78607925 108.89342627 132.78607925 108.89342627 133.17089844 111.03271484 C134.02676819 113.06351534 134.97934751 114.68806711 136.265625 116.4765625 C136.73677734 117.13785156 137.20792969 117.79914063 137.69335938 118.48046875 C138.20705078 119.18816406 138.72074219 119.89585937 139.25 120.625 C139.78431641 121.37136719 140.31863281 122.11773437 140.86914062 122.88671875 C142.57277414 125.26268261 144.28537758 127.63195692 146 130 C147.08866189 131.5077257 148.17720557 133.01553676 149.265625 134.5234375 C150.88959968 136.77198008 152.51441254 139.01989547 154.14160156 141.26611328 C157.79857443 146.31813744 161.41260116 151.39838169 165 156.5 C171.25432876 165.39076572 177.6211553 174.19833001 184 183 C190.87555727 192.4870449 197.72499329 201.98874358 204.45874023 211.57714844 C207.13470435 215.38079271 209.83587183 219.16390281 212.5703125 222.92578125 C213.16328125 223.74175781 213.75625 224.55773437 214.3671875 225.3984375 C215.51297474 226.97198531 216.66129224 228.54369475 217.8125 230.11328125 C218.33070313 230.82484375 218.84890625 231.53640625 219.3828125 232.26953125 C219.84059082 232.89448486 220.29836914 233.51943848 220.77001953 234.16333008 C222.03032378 236.04528103 223.00503849 237.96808986 224 240 C216.92194185 240.40776938 209.84692624 240.68663385 202.75976562 240.87890625 C200.35334176 240.95907728 197.94769056 241.0680637 195.54394531 241.20703125 C176.24916712 242.29406101 176.24916712 242.29406101 171.06774902 238.63574219 C167.76749837 234.9921445 165.90970817 230.70809929 164.01748657 226.21725464 C162.36900012 222.62495737 160.09256454 219.54109744 157.78515625 216.34765625 C156.85681734 215.01637858 155.93128123 213.68314283 155.00830078 212.34814453 C154.28383759 211.30439667 154.28383759 211.30439667 153.54473877 210.23956299 C150.64357775 206.03345839 147.7902705 201.79498046 144.93359375 197.55859375 C144.32246735 196.65251373 143.71134094 195.74643372 143.08169556 194.81289673 C141.83061711 192.95725056 140.57983624 191.10140373 139.3293457 189.24536133 C137.43721908 186.43708305 135.54389155 183.6296174 133.65039062 180.82226562 C121.97619941 163.50701808 121.97619941 163.50701808 116.25987244 154.85704041 C114.31333611 151.92231237 112.30880377 149.04982561 110.22436523 146.21264648 C108 143 108 143 108 141 C107.34 141 106.68 141 106 141 C105.72969971 141.73331543 105.45939941 142.46663086 105.1809082 143.22216797 C104.0398503 145.90626077 102.76116369 148.05217686 101.10546875 150.4453125 C100.49437256 151.33549072 99.88327637 152.22566895 99.25366211 153.14282227 C98.57182861 154.12694092 97.88999512 155.11105957 97.1875 156.125 C95.64999158 158.3651745 94.11354719 160.60605361 92.578125 162.84765625 C92.15369614 163.46634079 91.72926727 164.08502533 91.29197693 164.72245789 C84.95550667 173.96741797 78.70234195 183.26893904 72.4375 192.5625 C71.17041948 194.44084288 69.90332969 196.3191795 68.63623047 198.19750977 C63.28774127 206.12931812 57.94374005 214.06380262 52.6484375 222.03125 C52.26367752 222.61003403 51.87891754 223.18881805 51.48249817 223.78514099 C49.78103826 226.3463539 48.08333345 228.90996108 46.39038086 231.47680664 C45.82456299 232.33137451 45.25874512 233.18594238 44.67578125 234.06640625 C44.20052002 234.78771729 43.72525879 235.50902832 43.2355957 236.25219727 C42 238 42 238 40 240 C37.97518921 240.24050903 37.97518921 240.24050903 35.45849609 240.22705078 C34.51767181 240.22689972 33.57684753 240.22674866 32.60751343 240.22659302 C31.58976837 240.21627045 30.57202332 240.20594788 29.5234375 240.1953125 C28.48305328 240.1924826 27.44266907 240.18965271 26.37075806 240.18673706 C23.03872306 240.17551704 19.70695414 240.15040915 16.375 240.125 C14.11979554 240.11497256 11.86458688 240.1058463 9.609375 240.09765625 C4.07282546 240.07557178 -1.46356827 240.04207639 -7 240 C-5.69814767 237.35117625 -4.34639082 234.93103787 -2.63671875 232.5234375 C-2.16878906 231.86214844 -1.70085937 231.20085937 -1.21875 230.51953125 C-0.7134375 229.81183594 -0.208125 229.10414063 0.3125 228.375 C1.10720703 227.25544922 1.10720703 227.25544922 1.91796875 226.11328125 C6.29228791 219.9625367 10.71359452 213.84586106 15.1418457 207.73388672 C19.3030707 201.98439371 23.40300926 196.19394392 27.48486328 190.38793945 C31.07395681 185.29095671 34.71423156 180.23318566 38.375 175.1875 C43.58327446 168.00582659 48.68621466 160.75554197 53.75805664 153.47705078 C57.72192959 147.79860825 61.74657976 142.16823361 65.8125 136.5625 C66.87390174 135.09259508 67.9351053 133.62254702 68.99609375 132.15234375 C70.93365264 129.46808855 72.8859725 126.79555936 74.84765625 124.12890625 C75.69077707 122.96142316 76.53326787 121.79348471 77.375 120.625 C78.46941406 119.12839844 78.46941406 119.12839844 79.5859375 117.6015625 C81.21582192 115.20650763 81.21582192 115.20650763 80.75732422 113.08203125 C79.90071528 110.72704705 78.80631459 109.08567663 77.296875 107.0859375 C76.73532715 106.33417236 76.1737793 105.58240723 75.59521484 104.80786133 C74.98629395 104.00501709 74.37737305 103.20217285 73.75 102.375 C72.46530818 100.65817858 71.18147367 98.94071534 69.8984375 97.22265625 C69.24584961 96.35141113 68.59326172 95.48016602 67.92089844 94.58251953 C65.02683774 90.69164839 62.20069309 86.75314511 59.375 82.8125 C55.31122431 77.16073713 51.19316148 71.55642142 47 66 C42.24567691 59.69997489 37.6023014 53.32702293 32.99389648 46.91967773 C29.05066634 41.44196206 25.06943397 35.99377378 21.0625 30.5625 C20.49144531 29.78745117 19.92039062 29.01240234 19.33203125 28.21386719 C16.23575625 24.01549878 13.12637824 19.82736224 10.00390625 15.6484375 C9.35478271 14.77630615 8.70565918 13.9041748 8.03686523 13.00561523 C6.78383352 11.3224789 5.52696624 9.6421897 4.26586914 7.96508789 C3.4265686 6.83574829 3.4265686 6.83574829 2.5703125 5.68359375 C2.07289551 5.01900146 1.57547852 4.35440918 1.06298828 3.66967773 C0 2 0 2 0 0 Z " fill="#FCFCFC" transform="translate(313,191)"/>
<path d="M0 0 C1.03060547 0.90298828 1.03060547 0.90298828 2.08203125 1.82421875 C2.75878906 2.39527344 3.43554688 2.96632812 4.1328125 3.5546875 C17.61033098 15.82838879 21.90847403 32.22086041 23.08203125 49.82421875 C-20.14796875 49.82421875 -63.37796875 49.82421875 -107.91796875 49.82421875 C-107.91796875 38.15928041 -107.91796875 38.15928041 -105.79296875 31.88671875 C-105.56706055 31.2006958 -105.34115234 30.51467285 -105.10839844 29.80786133 C-99.33176256 12.93431583 -88.35827392 -0.75586739 -72.390625 -8.99609375 C-48.32613945 -19.81335436 -20.60838491 -17.11795576 0 0 Z " fill="#373737" transform="translate(232.91796875,239.17578125)"/>
<path d="M0 0 C0.66 0.33 1.32 0.66 2 1 C-1.96 4.96 -5.92 8.92 -10 13 C-10.66 12.67 -11.32 12.34 -12 12 C-8.32167983 7.47384007 -4.58913637 3.60575001 0 0 Z " fill="#4E4E4E" transform="translate(151,236)"/>
</svg>
