<?xml version="1.0" encoding="UTF-8"?>
<svg version="1.1" xmlns="http://www.w3.org/2000/svg" width="512" height="512">
<path d="M0 0 C1.27246582 0.00757324 2.54493164 0.01514648 3.85595703 0.02294922 C28.75043344 0.45581421 50.90653 9.18753859 69.875 25.4375 C70.68582031 26.10265625 71.49664062 26.7678125 72.33203125 27.453125 C87.59805099 40.43525202 97.86597605 57.84069273 104.875 76.4375 C104.26615967 76.47713867 103.65731934 76.51677734 103.0300293 76.55761719 C85.44874848 77.15461856 85.44874848 77.15461856 69.7265625 84.06640625 C67.875 85.4375 67.875 85.4375 65.875 85.4375 C65.58882812 86.02402344 65.30265625 86.61054688 65.0078125 87.21484375 C63.875 89.4375 63.875 89.4375 62.8046875 91.12890625 C56.97589386 101.46961793 58.84581356 116.31967897 61.85131836 127.35302734 C66.3887324 142.28633476 74.14131341 156.14475668 81.17477417 170.01016235 C82.00692217 171.65098838 82.83667341 173.29303245 83.66384888 174.93637085 C87.98768024 183.50349516 92.28605018 191.62516002 98.26147461 199.17358398 C99.93080301 201.51579646 100.92059141 203.73399037 101.875 206.4375 C101.27171875 206.80101562 100.6684375 207.16453125 100.046875 207.5390625 C93.93215899 211.38541612 90.21221158 214.42586525 87.875 221.4375 C87.58462864 223.85278656 87.33384532 226.25795866 87.11328125 228.6796875 C86.96585737 230.21496783 86.81796623 231.75020333 86.66967773 233.28540039 C86.59159882 234.10283722 86.5135199 234.92027405 86.43307495 235.76248169 C84.86459575 252.04936539 82.96346835 268.28013028 80.8125 284.5 C80.68880035 285.4476825 80.56510071 286.39536499 80.43765259 287.37176514 C75.18488632 327.46455655 75.18488632 327.46455655 63.30859375 337.80078125 C53.18211062 345.11812812 36.29491262 348.84646129 24.1328125 347.02734375 C15.98523942 344.95949465 10.11924743 340.80344197 5.5625 333.75 C-3.72745882 316.73099685 -2.4467176 294.74701064 -2.75 275.875 C-2.78993053 273.84023885 -2.83046313 271.80548943 -2.87158203 269.77075195 C-3.03654538 261.17394113 -3.15888008 252.58266622 -3.078125 243.984375 C-3.06700684 242.79658447 -3.05588867 241.60879395 -3.04443359 240.38500977 C-3.01604095 238.30189466 -2.97350001 236.21889282 -2.91259766 234.13647461 C-2.78809276 226.59723454 -4.18209072 220.55793006 -8.1875 214.125 C-13.28269316 209.4634403 -19.41399973 207.64787683 -26.125 206.4375 C-24.45850719 196.70167359 -20.43236064 187.8142458 -16.72021484 178.72119141 C-8.24706198 157.90078473 -6.50101728 138.51886286 -9.8125 116.125 C-9.97314941 115.03590332 -10.13379883 113.94680664 -10.29931641 112.82470703 C-12.73500181 97.694171 -12.73500181 97.694171 -21.125 85.4375 C-33.06645909 78.22533164 -43.58779113 78.50725711 -56.78051758 81.65405273 C-62.18464744 83.03900044 -67.13531722 84.95723331 -72.12109375 87.484375 C-74.125 88.4375 -74.125 88.4375 -76.125 88.4375 C-74.94489199 62.18009672 -66.24605999 35.03289511 -47.125 16.4375 C-33.61964489 4.11079406 -17.95677045 -0.15041571 0 0 Z " fill="#326691" transform="translate(252.125,41.5625)"/>
<path d="M0 0 C-1.43774505 3.349198 -3.50979613 6.05256661 -5.73193359 8.921875 C-23.78273253 32.36793119 -30.32816841 62.52468815 -30.0625 91.71484375 C-30.05871338 92.69183731 -30.05492676 93.66883087 -30.05102539 94.6754303 C-30.03488909 98.79889345 -30.00669868 102.92225174 -29.97949219 107.0456543 C-29.85571859 127.62627249 -29.85571859 127.62627249 -30.75537109 136.45581055 C-32.42127955 153.78159099 -31.56476596 169.51527562 -21 184 C-18.43514621 187.10189898 -15.77449029 190.08467264 -13 193 C-14.69289457 197.3333842 -17.89772725 200.26846125 -21.0625 203.5625 C-25.92108479 208.69982859 -30.51035296 213.96002219 -34.953125 219.46484375 C-47.49720346 235.00130734 -47.49720346 235.00130734 -55.15234375 236.390625 C-61.39738548 236.34672312 -65.22548504 233.05958815 -69.52734375 228.82421875 C-98.31055727 195.9486052 -106.97941753 144.49884594 -116 103 C-116.24298828 101.89140625 -116.48597656 100.7828125 -116.73632812 99.640625 C-121.16586797 78.80195399 -123.45222952 54.62640439 -117 34 C-116.47212891 32.30617188 -116.47212891 32.30617188 -115.93359375 30.578125 C-113.35537274 23.19233016 -109.93981959 17.05492654 -105 11 C-104.45085937 10.30261719 -103.90171875 9.60523437 -103.3359375 8.88671875 C-94.920434 -0.65950218 -81.30291806 -5.96113114 -69 -8 C-67.78957031 -8.21076172 -67.78957031 -8.21076172 -66.5546875 -8.42578125 C-44.35735 -11.31352265 -21.14124018 -6.39036292 0 0 Z " fill="#326691" transform="translate(196,51)"/>
<path d="M0 0 C0.86613419 -0.01252808 1.73226837 -0.02505615 2.62464905 -0.03796387 C38.12888983 -0.45267224 38.12888983 -0.45267224 53.8671875 5.2734375 C54.54587891 5.50337402 55.22457031 5.73331055 55.92382812 5.97021484 C71.34978609 11.23516137 83.97832175 19.32286892 95.8671875 30.2734375 C96.36911621 30.7262207 96.87104492 31.17900391 97.38818359 31.64550781 C109.22383174 42.39954907 115.85870394 53.71417831 117.15136719 69.8125 C117.26849628 73.49255579 117.28389975 77.15429471 117.2421875 80.8359375 C117.2258728 82.814729 117.2258728 82.814729 117.20922852 84.83349609 C116.4054641 134.50917004 94.77835044 181.19993253 71.8671875 224.2734375 C73.95976694 224.12027609 76.05218482 223.96490611 78.14453125 223.80859375 C79.30976318 223.72230713 80.47499512 223.63602051 81.67553711 223.54711914 C83.93581393 223.35330209 86.18887665 223.06474974 88.4296875 222.7109375 C97.91199731 221.50409807 105.91770291 221.34402304 113.8671875 227.2734375 C118.28476767 231.50155035 119.20030674 235.76783208 119.4296875 241.7734375 C119.06261231 250.83495077 115.34577623 257.13561095 108.7109375 263.265625 C97.54391661 272.23646511 86.60064504 277.64519691 72.8671875 281.2734375 C71.97902344 281.5209375 71.09085937 281.7684375 70.17578125 282.0234375 C60.36034518 284.29217393 49.8762366 283.4456191 39.8671875 283.2734375 C39.82231201 284.16836914 39.77743652 285.06330078 39.73120117 285.98535156 C36.10901898 356.26380549 36.10901898 356.26380549 12.8671875 378.2734375 C5.22472365 384.9657572 -3.60011329 388.23124007 -13.1328125 391.2734375 C-14.19371094 391.61632812 -15.25460937 391.95921875 -16.34765625 392.3125 C-29.36960761 395.89898339 -45.91003281 396.65707052 -58.1328125 390.2734375 C-72.94343998 380.96784885 -79.59901881 366.26079572 -83.60107422 349.71044922 C-87.50180443 331.8329979 -87.78234043 313.49217624 -88.1328125 295.2734375 C-88.71289062 295.47839844 -89.29296875 295.68335938 -89.890625 295.89453125 C-107.98448763 302.13482381 -128.63777287 300.94074741 -145.9453125 292.7109375 C-148.81054201 291.20681529 -150.9417416 289.65804148 -153.1328125 287.2734375 C-157.14272027 288.82565986 -161.04330104 290.57721473 -164.94921875 292.37109375 C-172.88369798 295.64992148 -181.71793531 295.04457843 -189.734375 292.30078125 C-212.14867219 282.69986894 -223.4355119 257.22237851 -232.0703125 235.9609375 C-243.66027797 206.57920865 -251.98726655 176.15934563 -258.1328125 145.2109375 C-258.35484344 144.1149675 -258.35484344 144.1149675 -258.58135986 142.99685669 C-265.52289992 108.40515875 -267.09460215 67.68623658 -247.1328125 37.2734375 C-234.1053736 18.58295147 -214.78398694 9.77490955 -193.01171875 5.6875 C-169.63599988 3.19220675 -146.25854567 5.72900517 -123.80541992 12.37939453 C-113.94637598 15.21187574 -107.77181481 12.90583851 -98.53515625 8.84375 C-87.65976156 4.65918726 -76.76519853 3.82783541 -65.2644043 3.9921875 C-63.06867276 4.02346085 -60.87366747 4.0331956 -58.67773438 4.0390625 C-52.11915261 4.07686439 -45.66250536 4.27167134 -39.12890625 4.90625 C-33.77445908 5.36595213 -29.39535133 4.89029974 -24.2578125 3.3984375 C-22.86535994 3.02314824 -21.47213428 2.65071487 -20.078125 2.28125 C-19.18891357 2.02819092 -19.18891357 2.02819092 -18.28173828 1.77001953 C-12.20851396 0.36659551 -6.19993409 0.08172256 0 0 Z M-26.79492188 15.95214844 C-34.1004425 17.71039248 -40.56385825 17.48877697 -48.0078125 16.2734375 C-67.52623985 13.57923551 -90.00579059 14.27936202 -106.8828125 25.7109375 C-111.47154941 27.91706102 -114.51805502 26.76644727 -119.1328125 25.2734375 C-149.4997331 15.48095861 -184.32698564 10.22243396 -214.390625 23.796875 C-231.75881492 33.14897727 -242.16208262 47.5005154 -248.03515625 66.13671875 C-257.25150715 100.02171038 -249.28594199 134.02361294 -241.1328125 167.2734375 C-240.86098145 168.38541504 -240.58915039 169.49739258 -240.30908203 170.64306641 C-226.13299484 232.08999674 -226.13299484 232.08999674 -188.1328125 279.2734375 C-182.12203039 282.18125092 -175.38179151 282.32628186 -168.92578125 280.7265625 C-159.53631033 276.67245286 -152.89263169 267.10537188 -146.6953125 259.34765625 C-140.05149063 251.21871296 -132.5947225 243.65119062 -125.1328125 236.2734375 C-123.8953125 236.7271875 -122.6578125 237.1809375 -121.3828125 237.6484375 C-115.74401963 239.5460217 -110.00756072 240.42850755 -104.1328125 241.2734375 C-107.06450964 247.43405452 -110.33371754 251.92366429 -116.8828125 254.3984375 C-120.44873919 255.54778577 -124.05181974 256.52352389 -127.671875 257.484375 C-128.46883789 257.69819824 -129.26580078 257.91202148 -130.08691406 258.13232422 C-131.67109752 258.55185485 -133.25898233 258.95770738 -134.85058594 259.34814453 C-139.44548674 260.53937807 -142.68880126 261.82287871 -146.1328125 265.2734375 C-147.72167246 268.91457492 -148.56060201 271.02062538 -147.2578125 274.8359375 C-139.6122858 283.60580636 -130.41454508 286.00124212 -119.1328125 287.2734375 C-106.02042122 287.33777701 -95.21472118 285.4161902 -83.77734375 278.625 C-82.71491455 277.99674316 -81.65248535 277.36848633 -80.55786133 276.72119141 C-79.75759521 276.24343262 -78.9573291 275.76567383 -78.1328125 275.2734375 C-78.14852295 276.62816162 -78.14852295 276.62816162 -78.16455078 278.01025391 C-78.3263764 294.22354229 -78.35679154 310.39900131 -77.3203125 326.5859375 C-77.21517334 328.3496167 -77.21517334 328.3496167 -77.10791016 330.14892578 C-75.83215625 348.01202694 -71.85679064 363.91051504 -58.1328125 376.2734375 C-48.07288797 383.43502531 -36.11657674 384.92384414 -24.09472656 382.93652344 C-19.68177335 382.00096867 -15.41103546 380.69133479 -11.1328125 379.2734375 C-9.72515625 378.82291016 -9.72515625 378.82291016 -8.2890625 378.36328125 C2.50756619 374.51448306 10.98552757 366.81467276 16.4921875 356.8359375 C22.36264015 344.06826576 23.87375644 329.73712962 25.62255859 315.93896484 C25.99008667 313.04000828 26.3707561 310.14302286 26.75390625 307.24609375 C28.36355906 294.94324421 29.70479361 282.62619233 30.8671875 270.2734375 C31.77170654 270.43424805 32.67622559 270.59505859 33.6081543 270.76074219 C54.32196829 274.01933904 76.91566099 269.84679151 94.3515625 258.171875 C99.3877271 254.37129116 104.40339226 250.21273134 106.8671875 244.2734375 C107.31424282 240.69699496 107.3412364 238.97502987 105.3046875 235.9609375 C99.23634029 231.75977404 92.13137055 233.60853196 85.3046875 234.7109375 C73.34951745 236.48137662 62.70656167 237.15694324 50.8671875 234.2734375 C51.19291748 233.7379126 51.51864746 233.2023877 51.85424805 232.65063477 C79.39022834 187.18961026 104.91157698 134.39809567 105.1796875 80.0859375 C105.18802612 78.68831177 105.18802612 78.68831177 105.1965332 77.26245117 C105.01585789 60.061235 99.25967154 50.68017417 87.29296875 38.6953125 C75.55259403 27.52053247 61.85268417 20.23647459 46.4296875 15.5859375 C45.42856934 15.28200073 45.42856934 15.28200073 44.40722656 14.97192383 C34.03541277 11.99096008 23.82285829 10.93033167 13.0546875 11.0234375 C11.34249023 11.03358887 11.34249023 11.03358887 9.59570312 11.04394531 C-2.90847706 11.19678208 -14.66692633 12.93345947 -26.79492188 15.95214844 Z " fill="#326691" transform="translate(317.1328125,15.7265625)"/>
<path d="M0 0 C7.74960233 6.69283838 13.83819508 13.23997286 15.109375 23.6484375 C15.26792969 24.86789063 15.42648437 26.08734375 15.58984375 27.34375 C17.73985405 50.31372937 11.5870461 73.73554831 4.921875 95.5234375 C4.66067871 96.3788916 4.39948242 97.2343457 4.13037109 98.11572266 C-3.8690678 123.68820544 -15.45526684 157.07517545 -33.078125 177.5234375 C-34.068125 177.5234375 -35.058125 177.5234375 -36.078125 177.5234375 C-35.22099834 172.29301689 -33.21991082 167.66614851 -31.234375 162.77734375 C-28.91485959 156.24978857 -28.88658872 149.93666273 -28.890625 143.0859375 C-28.88925537 142.08038818 -28.88788574 141.07483887 -28.88647461 140.03881836 C-28.93183177 132.83598954 -29.42082475 125.74977791 -30.140625 118.5859375 C-31.26537663 107.18647937 -30.71827901 96.49874987 -29.28613281 85.13012695 C-26.11063158 59.66593159 -32.54563 41.66398914 -47.578125 21.1484375 C-51.82373091 15.69929461 -56.34226905 10.54941795 -61.078125 5.5234375 C-61.70074219 4.83636719 -62.32335937 4.14929688 -62.96484375 3.44140625 C-71.98586889 -6.14697896 -83.87246087 -12.74582807 -95.078125 -19.4765625 C-91.38151506 -21.94096913 -88.07179127 -22.16938809 -83.765625 -22.6015625 C-82.95456299 -22.6843042 -82.14350098 -22.7670459 -81.30786133 -22.85229492 C-51.1657784 -25.73978598 -23.68530572 -19.1321367 0 0 Z " fill="#326691" transform="translate(396.078125,60.4765625)"/>
<path d="M0 0 C5.31750232 4.61425956 6.63479648 10.17463564 7.87109375 16.7734375 C8.03544922 17.57716797 8.19980469 18.38089844 8.36914062 19.20898438 C10.14964218 28.1691602 10.88164694 36.95628555 10.93359375 46.0859375 C10.95421875 46.96894531 10.97484375 47.85195312 10.99609375 48.76171875 C11.07598992 62.76352304 7.08615057 75.06789689 1.74609375 87.7734375 C1.21425015 89.06524348 0.68364815 90.35756135 0.15429688 91.65039062 C-0.86061266 94.12469822 -1.88287076 96.59549245 -2.90966797 99.06494141 C-4.75270244 103.51419678 -6.54309698 107.98351147 -8.31640625 112.4609375 C-21.17177894 111.784503 -30.23597113 107.60942914 -38.97705078 98.09960938 C-47.35048097 87.85490223 -50.07247755 75.38448174 -49.31640625 62.4609375 C-49.15914062 61.3059375 -49.001875 60.1509375 -48.83984375 58.9609375 C-48.06003559 53.00763121 -47.95339852 47.01866277 -47.75390625 41.0234375 C-47.70492187 39.78384277 -47.6559375 38.54424805 -47.60546875 37.26708984 C-47.40764258 31.84453316 -47.24626575 26.47778076 -47.5703125 21.05859375 C-48.18539698 10.7171469 -48.18539698 10.7171469 -45.80859375 7.28125 C-43.37770181 5.47826373 -41.16068263 4.5018054 -38.31640625 3.4609375 C-37.14851562 2.99558594 -35.980625 2.53023437 -34.77734375 2.05078125 C-23.7551475 -2.1144487 -11.1199539 -5.79525437 0 0 Z M-18.31640625 5.4609375 C-18.73627571 7.74929972 -18.73627571 7.74929972 -18.31640625 10.4609375 C-15.02958002 14.26673629 -13.04219394 16.29812734 -8.00390625 16.7734375 C-3.72863279 16.41112619 -2.26812798 15.49947458 0.68359375 12.4609375 C1.01359375 11.4709375 1.34359375 10.4809375 1.68359375 9.4609375 C-1.68909821 5.24507255 -5.17648923 4.26306007 -10.31640625 3.4609375 C-13.52036041 3.4609375 -15.41040364 4.20428772 -18.31640625 5.4609375 Z " fill="#326691" transform="translate(223.31640625,133.5390625)"/>
<path d="M0 0 C0.85722656 0.00515625 1.71445312 0.0103125 2.59765625 0.015625 C8.84482845 0.09482845 8.84482845 0.09482845 10 1.25 C10.26732397 6.24004751 9.94768986 10.93953931 9.28149414 15.89282227 C7.12644135 32.02487835 7.74445182 47.91010075 9.28808594 64.08032227 C10.0603737 72.1762891 10.39996334 79.52709508 8.6875 87.5625 C8.44386719 88.75488281 8.20023437 89.94726562 7.94921875 91.17578125 C6.99542674 94.26481134 6.30095416 95.16116566 4 97.25 C3.40574219 96.12207031 2.81148438 94.99414062 2.19921875 93.83203125 C1.80460449 93.08324707 1.40999023 92.33446289 1.00341797 91.56298828 C0.11150922 89.86819619 -0.77873908 88.17252941 -1.66748047 86.47607422 C-4.02336825 81.98263328 -6.39949841 77.5032529 -8.83203125 73.05078125 C-13.60995605 64.24075407 -17.9695655 55.4275801 -21.5625 46.0625 C-21.88492676 45.22605957 -22.20735352 44.38961914 -22.53955078 43.52783203 C-26.3160743 33.2860311 -29.31270725 21.53188469 -25.8125 10.8125 C-23.16984625 5.61831849 -20.30673354 3.5931567 -14.9453125 1.66015625 C-9.9019664 0.02206356 -5.26417924 -0.13139917 0 0 Z M-18 9.25 C-17.96906827 11.66585574 -17.96906827 11.66585574 -17 14.25 C-14.41920069 16.37441886 -14.41920069 16.37441886 -11 17.25 C-7.49605027 16.65611022 -4.99981646 15.98319874 -2.125 13.875 C-0.80256057 11.96480972 -0.22416085 10.56632875 0 8.25 C-2.58215672 5.66784328 -3.72703127 5.95205535 -7.3125 5.9375 C-11.68002181 6.00054822 -14.52708497 6.37586343 -18 9.25 Z " fill="#326691" transform="translate(348,128.75)"/>
<path d="M0 0 C6.77093031 5.56086445 10.7595392 12.56710018 12.625 21.125 C13.76139414 34.11751178 13.15595086 46.58676659 4.625 57.125 C2.69310379 58.90752279 0.69955944 60.50143174 -1.375 62.125 C-2.035 62.785 -2.695 63.445 -3.375 64.125 C2.235 65.445 7.845 66.765 13.625 68.125 C12.635 71.095 11.645 74.065 10.625 77.125 C1.58405663 74.94689924 -7.37712747 72.61120739 -16.27685547 69.90917969 C-20.47119072 68.6453462 -24.65041509 67.60423514 -28.9375 66.6875 C-37.06249689 64.68681677 -42.36567656 60.03346103 -47.125 53.26953125 C-53.59584896 42.16798101 -53.45074847 29.44954971 -50.41015625 17.34375 C-47.38524402 7.93798517 -42.19507115 1.70412825 -33.484375 -2.8671875 C-22.47969651 -7.89106246 -9.90034166 -7.12677655 0 0 Z M-35.125 10.1796875 C-41.20422162 18.62629832 -42.21012809 26.86485495 -41.375 37.125 C-40.04667964 44.87167502 -36.921682 51.66365499 -30.55859375 56.5078125 C-25.37291202 59.50398416 -20.24982361 60.01370739 -14.375 59.125 C-8.19872241 57.47142213 -4.86932619 54.00809483 -1.62890625 48.61328125 C3.28372583 38.86453784 3.86126036 29.90085378 1 19.4375 C-1.30221591 12.55517144 -4.21437083 8.45784534 -10 4.1875 C-19.72819436 1.1249203 -28.41294088 2.29901095 -35.125 10.1796875 Z " fill="#326691" transform="translate(437.375,415.875)"/>
<path d="M0 0 C1.95421894 0.95947211 3.80685746 1.99155869 5.6640625 3.125 C6.3240625 3.455 6.9840625 3.785 7.6640625 4.125 C7.9940625 2.805 8.3240625 1.485 8.6640625 0.125 C11.6340625 0.125 14.6040625 0.125 17.6640625 0.125 C17.59681652 7.65095025 17.5069137 15.17639105 17.40161133 22.7019043 C17.36845514 25.25945978 17.34039455 27.8170868 17.31762695 30.37475586 C17.28391035 34.06134386 17.23158395 37.74728179 17.17578125 41.43359375 C17.16619637 43.13569252 17.16619637 43.13569252 17.15641785 44.87217712 C16.99881029 53.475 16.12075143 61.84766354 9.6640625 68.125 C1.43627982 73.79601843 -6.66484394 73.6927161 -16.3359375 73.125 C-19.73855237 72.47151767 -22.16195632 71.60254296 -25.3359375 70.125 C-26.59135307 66.35875329 -25.70655708 64.75311066 -24.3359375 61.125 C-23.73007813 61.3415625 -23.12421875 61.558125 -22.5 61.78125 C-15.12149384 64.23318435 -8.37003823 65.59194572 -0.8984375 62.875 C2.75144197 60.38239939 4.27397677 58.2952572 5.6640625 54.125 C5.73071626 52.73060336 5.74944449 51.33330125 5.7265625 49.9375 C5.7059375 48.679375 5.6853125 47.42125 5.6640625 46.125 C4.9009375 46.764375 4.1378125 47.40375 3.3515625 48.0625 C-1.96726751 52.1443928 -7.88906247 51.70587326 -14.3359375 51.125 C-20.23732714 49.43751113 -23.86400107 46.18410737 -27.3359375 41.125 C-29.86713375 36.08103854 -30.85834321 31.9338896 -30.7734375 26.25 C-30.76731445 25.54963623 -30.76119141 24.84927246 -30.75488281 24.12768555 C-30.58049444 18.33597931 -29.43062824 13.98344804 -26.3359375 9.125 C-25.7996875 8.2175 -25.2634375 7.31 -24.7109375 6.375 C-17.96623966 -0.01471375 -9.0038297 -3.37267199 0 0 Z M-16.5859375 12.5 C-20.45319439 18.30088533 -21.00531323 23.25343978 -20.3359375 30.125 C-19.11761697 35.69310557 -17.25160618 38.97393033 -12.3359375 42.125 C-9.1377363 43.7241006 -5.8146937 43.48695151 -2.3359375 43.125 C2.27836735 41.23732983 4.294216 38.44360457 6.6640625 34.125 C7.22427719 31.10622289 7.22471137 28.18776769 7.1640625 25.125 C7.17953125 24.34382813 7.195 23.56265625 7.2109375 22.7578125 C7.1750836 17.43350767 6.20151656 14.32372043 2.6640625 10.125 C-4.53878565 5.52743735 -10.60401159 6.18574488 -16.5859375 12.5 Z " fill="#326691" transform="translate(222.3359375,430.875)"/>
<path d="M0 0 C0.85142578 -0.020625 1.70285156 -0.04125 2.58007812 -0.0625 C9.77575373 -0.10634265 15.98123393 1.15895691 22.0625 5.125 C26.7740729 9.8365729 28.31274988 14.47141053 28.4375 21 C28.33230262 26.96995148 27.47432091 31.57667415 23.5234375 36.1953125 C16.54514314 42.83998323 10.11908727 44.39925594 0.625 44.4375 C-1.499375 44.375625 -3.62375 44.31375 -5.8125 44.25 C-5.8125 53.16 -5.8125 62.07 -5.8125 71.25 C-9.1125 71.25 -12.4125 71.25 -15.8125 71.25 C-15.8125 48.15 -15.8125 25.05 -15.8125 1.25 C-10.37947992 0.34449665 -5.46660993 0.03266085 0 0 Z M-5.8125 9.25 C-5.8125 17.83 -5.8125 26.41 -5.8125 35.25 C-1.18777019 37.5623649 4.73486542 36.64491805 9.5 35.0625 C13.12124992 33.54042085 15.08258772 31.61785965 17.1875 28.25 C18.76483174 23.51800479 18.71507348 19.69388532 17 15 C14.67759334 11.47634852 12.36138337 9.91924223 8.34765625 8.68359375 C5.87470814 8.18721538 3.58382398 8.11747366 1.0625 8.125 C0.19367187 8.12242187 -0.67515625 8.11984375 -1.5703125 8.1171875 C-3.84969449 8.10462066 -3.84969449 8.10462066 -5.8125 9.25 Z " fill="#326691" transform="translate(26.8125,410.75)"/>
<path d="M0 0 C-0.875 6.75 -0.875 6.75 -2 9 C-3.093125 8.67 -4.18625 8.34 -5.3125 8 C-11.50128558 6.46932172 -18.07832975 5.80748153 -24.0625 8.25 C-26.18389839 10.16610177 -27.21347612 11.24716641 -28 14 C-27.91917285 17.79887607 -27.39998338 19.52667373 -24.93359375 22.4453125 C-21.53501569 25.40492641 -18.19168865 27.08191375 -14.125 28.9375 C-0.78645603 35.32919993 -0.78645603 35.32919993 2.140625 41.34375 C4.04794417 47.23910015 3.9574627 53.70434232 1.375 59.375 C-1.36493008 64.08304886 -4.7516881 66.97804005 -9.75 69.25 C-19.01090095 71.38713099 -29.2543806 72.17541756 -37.85546875 67.421875 C-38.56316406 66.95265625 -39.27085937 66.4834375 -40 66 C-39.67 63.69 -39.34 61.38 -39 59 C-35.05910883 57.68926307 -33.07326439 58.74995639 -29.28125 60.28515625 C-23.95441504 61.95435282 -18.78485027 61.61658464 -13.5625 59.8125 C-10.57248554 57.69761172 -9.29848854 56.43717555 -8 53 C-7.75224727 50.09185486 -7.81694172 47.68092176 -9 45 C-13.79379984 40.32312211 -19.13420671 37.79454067 -25.16601562 35.0390625 C-31.74358574 31.91580984 -36.38930016 28.00766798 -39 21 C-39.55803844 15.14059635 -38.99482612 11.21679389 -36 6 C-27.19650315 -4.16338661 -11.85962003 -5.92981002 0 0 Z " fill="#326691" transform="translate(375,413)"/>
<path d="M0 0 C6.54687936 5.52790981 9.25850107 11.8904666 10.27734375 20.28515625 C10.63442967 28.38386496 8.31987845 36.81743856 3 43 C-3.53135928 48.22217813 -10.06458067 50.30389719 -18.375 50 C-25.84212152 49.11723876 -31.70687456 45.75175053 -36.5 40 C-40.82623546 31.34752908 -41.40788369 21.68036085 -39.41796875 12.23828125 C-37.03875313 6.01321026 -32.38092213 1.76204641 -27 -2 C-18.34636579 -5.84605965 -7.90232797 -5.27815868 0 0 Z M-26.1875 9.3125 C-30.16518177 15.21044194 -30.70566713 21.0535892 -30 28 C-28.120769 34.03332059 -25.17699076 37.58986908 -20.1875 41.375 C-16.65656127 42.38383964 -13.46138445 42.02040813 -10 41 C-5.99926821 38.43349281 -3.13547602 35.76519486 -1.47265625 31.21484375 C0.07926786 23.94260433 0.18649408 16.08727866 -3.7421875 9.58984375 C-6.29296387 6.36572579 -8.8790216 4.36252479 -12.98828125 3.66015625 C-18.99493835 3.37735695 -22.17338503 5.06900703 -26.1875 9.3125 Z " fill="#326691" transform="translate(100,434)"/>
<path d="M0 0 C6.6260842 5.8309541 8.07364891 12.22306625 8.94921875 20.73046875 C9 23 9 23 8 26 C-3.55 26 -15.1 26 -27 26 C-24.20094392 36.2842701 -24.20094392 36.2842701 -20.125 39.6875 C-12.94823576 42.89447057 -3.47837448 41.40006098 4 40 C4.66 42.31 5.32 44.62 6 47 C-3.25421619 51.72993272 -13.08358937 51.93525755 -23 49 C-29.22159369 45.77398846 -33.35641088 41.25748847 -35.8125 34.75 C-38.32426561 26.18129103 -37.31447264 18.20794298 -34 10 C-30.94192933 4.41111222 -27.0388639 0.45036686 -21.25 -2.3125 C-14.01443996 -3.84309924 -6.48428251 -3.95179449 0 0 Z M-24 10 C-24.99 12.64 -25.98 15.28 -27 18 C-18.42 18 -9.84 18 -1 18 C-2.26685157 10.40709568 -2.26685157 10.40709568 -5.5625 7 C-12.6024668 2.90401932 -18.54512981 3.76586264 -24 10 Z " fill="#326691" transform="translate(319,433)"/>
<path d="M0 0 C3.3 0 6.6 0 10 0 C10 20.79 10 41.58 10 63 C19.9 63 29.8 63 40 63 C40 65.64 40 68.28 40 71 C26.8 71 13.6 71 0 71 C0 47.57 0 24.14 0 0 Z " fill="#336791" transform="translate(461,411)"/>
<path d="M0 0 C-0.52268466 2.76276177 -1.10869587 5.3260876 -2 8 C-3.010625 7.67 -4.02125 7.34 -5.0625 7 C-8.79971964 5.94843415 -12.10341785 5.63239791 -16 6 C-18.40083438 7.35885116 -18.40083438 7.35885116 -20 9 C-20.15875935 11.86408851 -20.15875935 11.86408851 -19 15 C-15.7957945 17.40533815 -12.00291506 18.8045114 -8.34570312 20.390625 C-3.31869607 22.75932652 -0.74703475 24.8572235 1.41088867 30.05566406 C2.66969233 34.21028998 2.09703559 37.86830752 1 42 C-1.64310733 46.77792479 -4.89843851 48.2994795 -10 50 C-16.60178495 51.43038674 -22.4879893 50.79895611 -29 49 C-29.99 48.34 -30.98 47.68 -32 47 C-31.125 41.25 -31.125 41.25 -30 39 C-29.05640625 39.34224609 -29.05640625 39.34224609 -28.09375 39.69140625 C-22.21922266 41.66432733 -18.06290826 42.48913536 -12 41 C-9.91015769 39.91325006 -9.91015769 39.91325006 -9 38 C-8.33314062 35.54327108 -8.33314062 35.54327108 -9 33 C-13.23933566 29.10688958 -17.96849791 27.01047825 -23.16015625 24.66015625 C-26.96863028 22.43374434 -29.36127878 20.00691093 -30.71484375 15.75390625 C-31.23554483 10.62911144 -31.06333666 7.39078255 -28 3 C-19.6165171 -4.94224696 -10.05651321 -4.46956143 0 0 Z " fill="#326691" transform="translate(149,433)"/>
<path d="M0 0 C0 4.62 0 9.24 0 14 C4.29 14 8.58 14 13 14 C13 16.64 13 19.28 13 22 C8.71 22 4.42 22 0 22 C0.09357699 26.50272703 0.19967925 31.004919 0.31738281 35.50708008 C0.35565798 37.03857339 0.39051349 38.57015615 0.421875 40.10180664 C0.46755807 42.3038733 0.52554537 44.50532496 0.5859375 46.70703125 C0.59748871 47.39150833 0.60903992 48.07598541 0.62094116 48.78120422 C0.73273744 52.38460837 0.94394553 53.9159183 3 57 C5.20725073 57.36362818 5.20725073 57.36362818 7.625 57.1875 C8.85089844 57.14689453 8.85089844 57.14689453 10.1015625 57.10546875 C11.04128906 57.05326172 11.04128906 57.05326172 12 57 C12.09765625 63.15234375 12.09765625 63.15234375 12 65 C9.83115446 67.16884554 5.94028586 66.90351394 3 67 C-1.33554547 66.58597494 -4.31689205 65.70062354 -7.4375 62.5 C-10.1418811 58.17299024 -10.13089092 54.9338235 -10.09765625 49.9296875 C-10.0962413 49.13345978 -10.09482635 48.33723206 -10.09336853 47.51687622 C-10.08776345 44.9695462 -10.07521014 42.42230353 -10.0625 39.875 C-10.05748565 38.14974085 -10.05292263 36.42448033 -10.04882812 34.69921875 C-10.03779237 30.46611209 -10.02052436 26.23307086 -10 22 C-12.64 22 -15.28 22 -18 22 C-18 19.36 -18 16.72 -18 14 C-15.36 14 -12.72 14 -10 14 C-10 10.04 -10 6.08 -10 2 C-6.38026598 0.68373308 -3.90432869 0 0 0 Z " fill="#326691" transform="translate(174,417)"/>
<path d="M0 0 C3.125 0.5 3.125 0.5 5.9375 2.4375 C8.80009973 6.44513962 9.7918729 9.58489973 9.125 14.5 C5.33318522 22.73844094 -3.15002511 28.72637967 -11.375 31.9375 C-22.93666669 35.36317902 -36.992174 34.941413 -47.875 29.5 C-47.875 28.84 -47.875 28.18 -47.875 27.5 C-46.44220703 27.13648438 -46.44220703 27.13648438 -44.98046875 26.765625 C-29.14317999 22.68912661 -18.24051954 19.23221899 -7.890625 6.0234375 C-3.5761099 0.62193216 -3.5761099 0.62193216 0 0 Z " fill="#326691" transform="translate(229.875,258.5)"/>
<path d="M0 0 C8.87805559 2.83051964 18.10600666 1.89648971 27.23828125 1.03515625 C28.38103516 0.93525391 29.52378906 0.83535156 30.70117188 0.73242188 C33.48526612 0.48779435 36.26825401 0.23440924 39.05078125 -0.02734375 C39.05078125 0.63265625 39.05078125 1.29265625 39.05078125 1.97265625 C25.89929106 11.91699089 11.71175948 15.15092263 -4.51171875 15.16015625 C-6.21618164 15.17852539 -6.21618164 15.17852539 -7.95507812 15.19726562 C-9.04755859 15.19919922 -10.14003906 15.20113281 -11.265625 15.203125 C-12.26021729 15.20723389 -13.25480957 15.21134277 -14.27954102 15.21557617 C-16.99463282 14.96852392 -18.63013943 14.36231385 -20.94921875 12.97265625 C-20.60139266 2.88569973 -20.60139266 2.88569973 -18.07421875 -0.65234375 C-11.69414192 -4.78062876 -6.35207471 -3.06084429 0 0 Z " fill="#326691" transform="translate(369.94921875,261.02734375)"/>
<path d="M0 0 C0 3.3 0 6.6 0 10 C-1.5675 10.226875 -3.135 10.45375 -4.75 10.6875 C-8.4212279 11.41966851 -9.75085092 11.76908134 -12.5625 14.375 C-15.06840271 18.95099625 -15.16737216 22.97697249 -15.31640625 28.171875 C-15.33718735 28.8542926 -15.35796844 29.53671021 -15.37937927 30.23980713 C-15.44452052 32.40977356 -15.50359404 34.57985624 -15.5625 36.75 C-15.60571897 38.22527221 -15.64933432 39.70053287 -15.69335938 41.17578125 C-15.80016518 44.78373166 -15.90153153 48.39181133 -16 52 C-19.3 52 -22.6 52 -26 52 C-26.33 35.17 -26.66 18.34 -27 1 C-24.03 1 -21.06 1 -18 1 C-17.34 2.65 -16.68 4.3 -16 6 C-15.071875 5.195625 -14.14375 4.39125 -13.1875 3.5625 C-8.9830937 -0.08131879 -5.47360667 -0.1032756 0 0 Z " fill="#326691" transform="translate(279,430)"/>
</svg>
